:SAMPLES-PER-SECOND 30
:FULLY-SPECIFIED
:DEGREES
389
root  55.3459 36.7557 -18.0764 -167.202 -67.3911 172.759
RightUpLeg  -17.3932 -13.1097 -7.73123
RightLeg  60.2075 -0.338936 -1.21826
RightFoot  -10.9102 -0.120032 17.6813
RightToes  0.000482159 0.542163 -0.142577
Spine  49.9954 -3.41665 19.4947
Spine1  -8.32244 5.26594 4.16978
HEad  -58.7453 24.6668 -32.2672
LeftShoulder1  11.1581 -15.9862 -49.9844
LeftArm  -23.1954 22.1155 -15.2274
LeftForeArm  35.119 -31.9088 -5.04021
LeftHand  -0.25398 0.0180481 5.50724
RightShoulder  5.28922 9.96227 33.334
RightArm  -8.1261 10.2812 27.0815
RightForeArm  22.466 67.6894 26.4045
RightHand  -3.85613 10.4612 -28.1247
LeftUpLeg  -39.7777 22.288 -22.1262
LeftLeg  26.4262 -4.11646 -1.84936
LeftFoot  3.39653 -2.1832 16.6466
LeftToes  1.06246e-005 4.65855e-005 -8.18502e-006
390
root  54.9173 36.452 -18.692 -166.767 -69.9977 170.338
RightUpLeg  -23.9603 -11.0817 -8.847
RightLeg  71.3493 -0.54328 -2.85475
RightFoot  -5.84927 -0.740937 14.2154
RightToes  0.000482159 0.542163 -0.142577
Spine  51.2762 -3.72551 17.9294
Spine1  -8.83753 4.06993 6.27969
HEad  -58.7989 24.2907 -33.3538
LeftShoulder1  11.0084 -15.7807 -49.8401
LeftArm  -23.5052 22.4996 -15.8326
LeftForeArm  38.6663 -37.2204 -6.18264
LeftHand  -0.25398 0.0180481 5.50724
RightShoulder  5.30181 9.7979 33.9122
RightArm  -10.987 5.97134 24.4563
RightForeArm  18.24 67.2282 26.317
RightHand  -4.49857 11.6154 -30.4685
LeftUpLeg  -40.1415 20.2127 -20.4824
LeftLeg  34.2831 -2.08924 -1.19884
LeftFoot  2.101 -1.92549 16.0976
LeftToes  1.06246e-005 4.65855e-005 -8.18502e-006
391
root  54.5829 36.1371 -19.2034 -163.679 -73.1128 165.332
RightUpLeg  -30.4859 -9.30934 -11.2871
RightLeg  76.6359 -1.03857 -6.20612
RightFoot  -7.12127 -0.462084 11.1386
RightToes  0.000482159 0.542163 -0.142577
Spine  52.4626 -4.5819 17.6596
Spine1  -8.99696 3.06037 7.71188
HEad  -59.7699 22.9593 -35.1067
LeftShoulder1  10.8718 -15.7215 -49.3743
LeftArm  -22.882 21.228 -17.286
LeftForeArm  43.4036 -43.5615 -7.75066
LeftHand  -0.25398 0.0180481 5.50724
RightShoulder  5.06701 9.42329 33.2487
RightArm  -13.3093 1.96953 19.2547
RightForeArm  13.9142 66.7765 26.255
RightHand  -4.73384 11.86 -31.5252
LeftUpLeg  -40.1272 18.3822 -20.092
LeftLeg  39.7787 -1.74383 -1.18215
LeftFoot  2.05137 -1.55874 13.1151
LeftToes  1.06246e-005 4.65855e-005 -8.18502e-006
392
root  54.2413 35.8944 -19.5248 -161.435 -75.4933 162.021
RightUpLeg  -36.8973 -7.99696 -14.2968
RightLeg  72.5528 -1.58238 -6.85978
RightFoot  -8.82451 -0.292897 10.7918
RightToes  0.000482159 0.542163 -0.142577
Spine  53.3133 -5.57818 19.105
Spine1  -9.64553 2.81837 8.63643
HEad  -60.9593 22.2316 -37.0322
LeftShoulder1  10.7863 -15.6975 -49.0465
LeftArm  -20.9481 20.0706 -19.2881
LeftForeArm  46.6654 -49.2685 -9.53372
LeftHand  -0.25398 0.0180481 5.50724
RightShoulder  4.55252 8.78438 31.0903
RightArm  -14.911 -1.16948 12.7636
RightForeArm  11.0822 65.8959 25.3562
RightHand  -4.88305 12.0685 -32.0837
LeftUpLeg  -39.7733 16.1595 -19.6326
LeftLeg  42.7453 -1.25943 -0.847566
LeftFoot  2.02042 -1.51364 12.7783
LeftToes  1.06246e-005 4.65855e-005 -8.18502e-006
393
root  53.8806 35.4599 -19.8218 -160.251 -76.9442 160.319
RightUpLeg  -41.4646 -6.53088 -17.6468
RightLeg  59.375 -0.659514 -2.02859
RightFoot  -5.06123 -0.779784 13.0844
RightToes  0.000482159 0.542163 -0.142577
Spine  54.1316 -6.18819 20.4939
Spine1  -11.2438 3.15648 9.02984
HEad  -62.0764 22.5772 -38.2142
LeftShoulder1  10.818 -15.7509 -49.0544
LeftArm  -17.4936 19.9426 -21.0761
LeftForeArm  49.0864 -52.5179 -10.7131
LeftHand  -0.25398 0.0180481 5.50724
RightShoulder  3.986 8.1666 28.1538
RightArm  -16.9215 -3.06783 7.00496
RightForeArm  8.6264 64.8499 24.2544
RightHand  -5.25321 12.7217 -33.1947
LeftUpLeg  -40.2531 13.4098 -18.9068
LeftLeg  46.7468 0.240284 0.733954
LeftFoot  -0.0863206 -1.3475 13.602
LeftToes  1.06246e-005 4.65855e-005 -8.18502e-006
394
root  53.4344 34.5662 -20.3937 -157.071 -78.557 155.9
RightUpLeg  -41.9444 -4.1783 -21.427
RightLeg  44.6127 2.65769 2.63709
RightFoot  2.08398 -2.0206 17.162
RightToes  0.000482159 0.542163 -0.142577
Spine  54.8294 -6.57111 20.3089
Spine1  -12.6135 3.34158 8.89724
HEad  -62.5641 23.096 -37.3522
LeftShoulder1  10.9825 -16.0023 -49.1583
LeftArm  -13.626 20.2271 -22.407
LeftForeArm  51.6556 -52.3775 -10.493
LeftHand  -0.25398 0.0180481 5.50724
RightShoulder  3.58498 7.74776 25.783
RightArm  -19.5654 -3.24834 2.90782
RightForeArm  5.62677 64.3621 24.0055
RightHand  -5.52093 13.0601 -34.1807
LeftUpLeg  -41.7762 10.7173 -18.1404
LeftLeg  54.2531 1.54469 2.81816
LeftFoot  -3.36734 -0.855726 12.4276
LeftToes  1.06246e-005 4.65855e-005 -8.18502e-006
395
root  52.9858 33.3961 -21.0951 -158.473 -80.7256 154.463
RightUpLeg  -40.7021 -0.806987 -23.7184
RightLeg  39.8159 4.0991 3.40341
RightFoot  5.09921 -2.95012 20.563
RightToes  0.000482159 0.542163 -0.142577
Spine  55.1425 -7.11243 20.1571
Spine1  -12.794 3.00526 8.99484
HEad  -61.8664 23.1878 -34.3108
LeftShoulder1  11.2404 -16.3508 -49.4282
LeftArm  -11.1509 20.1667 -23.4543
LeftForeArm  52.2058 -49.3603 -9.22186
LeftHand  -0.25398 0.0180481 5.50724
RightShoulder  3.38624 7.45996 24.7607
RightArm  -21.4639 -1.12288 0.160779
RightForeArm  4.34529 64.5493 24.3939
RightHand  -5.40247 12.7426 -34.0415
LeftUpLeg  -43.3052 8.74014 -16.0846
LeftLeg  63.8645 1.35614 3.64053
LeftFoot  -4.82082 -0.465165 8.81807
LeftToes  1.06246e-005 4.65855e-005 -8.18502e-006
396
root  52.7194 32.2233 -21.5727 -173.03 -82.2642 165.143
RightUpLeg  -40.6248 1.67249 -22.5521
RightLeg  46.4643 3.09053 3.14906
RightFoot  2.53639 -2.61911 21.4117
RightToes  0.000482159 0.542163 -0.142577
Spine  55.6466 -7.90131 21.4888
Spine1  -12.1266 2.53152 9.3554
HEad  -60.329 23.0332 -30.8578
LeftShoulder1  11.5331 -16.5414 -50.2309
LeftArm  -10.6642 19.6173 -24.2048
LeftForeArm  48.3529 -44.677 -7.80194
LeftHand  -0.25398 0.0180481 5.50724
RightShoulder  3.37613 7.45189 24.6851
RightArm  -21.6947 3.3349 -1.47422
RightForeArm  6.23938 64.3249 23.8816
RightHand  -4.79883 11.5359 -32.4684
LeftUpLeg  -44.5318 7.56321 -12.4497
LeftLeg  73.4577 0.391318 2.45936
LeftFoot  -4.20765 -0.242156 4.27691
LeftToes  1.06246e-005 4.65855e-005 -8.18502e-006
397
root  52.4936 31.0538 -21.8789 169.867 -82.2952 178.5
RightUpLeg  -41.0132 2.14819 -20.3327
RightLeg  55.6636 2.73374 3.91672
RightFoot  -1.32969 -1.88976 21.2437
RightToes  0.000482159 0.542163 -0.142577
Spine  56.1279 -8.63449 22.5853
Spine1  -11.8708 2.49654 8.05336
HEad  -58.964 22.5763 -28.8546
LeftShoulder1  11.7781 -16.496 -51.3999
LeftArm  -11.0274 18.5982 -24.5687
LeftForeArm  41.5277 -39.1678 -6.54458
LeftHand  -0.25398 0.0180481 5.50724
RightShoulder  3.58521 8.069 24.857
RightArm  -20.6382 9.12791 -1.59927
RightForeArm  8.41266 62.4718 21.5424
RightHand  -3.75799 9.24457 -29.5715
LeftUpLeg  -45.4171 7.10422 -8.99304
LeftLeg  82.8427 -0.229594 0.5737
LeftFoot  -5.25261 -0.0153721 0.803394
LeftToes  1.06246e-005 4.65855e-005 -8.18502e-006
398
root  52.3582 30.2797 -21.9018 159.105 -80.9836 -173.209
RightUpLeg  -41.0726 1.87239 -18.6429
RightLeg  59.6668 3.49462 5.92682
RightFoot  -2.16914 -1.7233 21.079
RightToes  0.000482159 0.542163 -0.142577
Spine  56.0722 -9.25239 23.7751
Spine1  -11.9544 2.86015 5.20807
HEad  -58.2833 21.227 -28.2498
LeftShoulder1  11.9413 -16.4164 -52.2991
LeftArm  -11.594 17.3135 -24.3397
LeftForeArm  35.8006 -33.8785 -5.46993
LeftHand  -0.25398 0.0180481 5.50724
RightShoulder  3.99296 9.21201 25.2944
RightArm  -18.8617 15.1491 0.187323
RightForeArm  7.38442 58.5889 18.1386
RightHand  -2.97927 7.43304 -26.9441
LeftUpLeg  -45.3994 7.12519 -5.88387
LeftLeg  90.2808 -0.33556 0.956988
LeftFoot  -8.90385 0.066914 -0.435178
LeftToes  1.06246e-005 4.65855e-005 -8.18502e-006
399
root  52.3951 30.0081 -21.6049 153.93 -79.1145 -169.52
RightUpLeg  -40.4877 1.08487 -17.4088
RightLeg  59.3011 4.43562 7.55486
RightFoot  -1.10572 -1.87267 20.6178
RightToes  0.000482159 0.542163 -0.142577
Spine  55.0679 -9.66485 25.1516
Spine1  -11.7893 3.28785 1.83523
HEad  -57.8011 18.777 -27.6735
LeftShoulder1  12.0686 -16.4748 -52.6907
LeftArm  -13.5067 16.455 -22.7066
LeftForeArm  33.9048 -31.4196 -4.97811
LeftHand  -0.25398 0.0180481 5.50724
RightShoulder  4.52556 10.3563 26.5921
RightArm  -16.6039 20.8991 3.80658
RightForeArm  4.81549 53.1814 14.7395
RightHand  -2.9822 7.75061 -26.3139
LeftUpLeg  -43.8183 6.65947 -2.6177
LeftLeg  95.5189 -0.879283 4.48414
LeftFoot  -12.7026 0.0751912 -0.163363
LeftToes  1.06246e-005 4.65855e-005 -8.18502e-006
400
root  52.5506 29.9891 -21.1029 151.034 -77.1418 -168.304
RightUpLeg  -38.7602 0.0700277 -16.5031
RightLeg  57.726 5.26072 8.48237
RightFoot  -0.555256 -1.87754 19.6806
RightToes  0.000482159 0.542163 -0.142577
Spine  53.7769 -9.89694 26.1
Spine1  -11.0088 3.62855 -1.61547
HEad  -56.7672 15.8256 -26.4263
LeftShoulder1  12.1389 -16.562 -52.7652
LeftArm  -17.3511 16.2855 -18.9444
LeftForeArm  35.387 -34.1377 -5.5735
LeftHand  -0.25398 0.0180481 5.50724
RightShoulder  5.20254 11.243 29.2913
RightArm  -13.7091 26.1414 8.65182
RightForeArm  4.2632 46.8454 11.6731
RightHand  -3.60111 9.68804 -27.6209
LeftUpLeg  -39.8521 4.90884 0.949814
LeftLeg  99.1499 -2.05994 8.99145
LeftFoot  -14.2634 0.0981871 0.532769
LeftToes  1.06246e-005 4.65855e-005 -8.18502e-006
